<svg version="1.0"
  xmlns="http://www.w3.org/2000/svg" width="1706.667" height="1565.333" viewBox="0 0 1280 1174">
  <path d="M631.5 1.6C621.7 5 615 14.7 615 25.3c0 3.7-.4 5.6-1 5.2-.6-.4-3.5-.6-6.4-.6-19 0-28.2 22.7-14.4 35.7 3.3 3.1 5.8 4.4 9.7 5.3 5.7 1.2 8.6.8 14.4-2.1L621 67v25h-33.7l2.3-4.7c3.1-6.1 3.1-11.6-.1-18-7.3-14.6-28-15.5-36.6-1.6-2 3.1-2.4 5.1-2.4 11.3v7.5l-4.3-.4c-8.9-.7-19.6 6.1-23.5 14.9-4.1 9.1-1.8 20.7 5.2 27.8 4.8 4.7 8.7 6.4 16.1 7l6.5.4v7.3c0 6.5.3 7.8 3 11.7 9.4 13.3 28.5 12.1 35.8-2.1 3.2-6.5 3.5-11.8.7-18-1.1-2.4-2-4.5-2-4.7 0-.2 7.4-.4 16.5-.4H621l-.2 23.1-.3 23.1-8.3 2.4c-24.5 7.1-45.4 24.3-57.7 47.7-2.3 4.5-5.3 11.3-6.5 15.2-1.2 3.8-2.7 8.1-3.2 9.5-1.5 3.4-2.2 30.6-1 35.5 2.5 9.7 5.4 18.8 7.7 24.1 3.8 8.5 12.5 21.1 19.6 28.3 3.7 3.7 5.5 6.1 4.4 5.8-1.1-.3-6.5-1.8-12-3.2-24.6-6.5-54.6-17.8-79.4-29.6-7.9-3.8-15.5-6.9-16.9-6.9-4.6 0-9.8 7.2-12.8 17.7-.2.7-2.9 1.9-6.1 2.8-3.2.9-13.1 4.1-22.1 7-34.7 11.6-62.3 26.8-84 46.1l-6.3 5.6-10.7-1.7c-16.3-2.6-47.5-3.1-65.1-1.1-31.9 3.7-55.7 10.6-84.8 24.6-39.6 19-73.6 49.3-99.1 88.2-4.2 6.5-9.6 14.3-11.9 17.3-2.3 3.1-4.9 7.7-5.8 10.3-.9 2.6-3.2 8.1-5 12.2-17.2 38.5-22.9 65.7-27.9 134.5-1.4 18.7-3.2 37.7-4.1 42.2-3 16-11.1 39.6-18.5 54.3-1.7 3.3-3 6.5-3 7.3 0 .7 2.6 2.4 5.8 3.7 9.1 3.7 32.2 15 32.2 15.8-.1.4-2.3 1.7-5 3-10.7 5-19.9 16.9-21.5 27.7-1 6.1 1.7 14.6 5.5 17.9 5.8 4.8 14.5 4.4 21-1.1 1.7-1.4 4.6-5.8 6.5-9.7 2.3-4.8 4.5-7.8 6.8-9.4 12-8 34.1 6.6 61.8 41 6.5 8 12.3 14.9 12.9 15.3.5.3 1 3.2 1 6.3 0 14.4 14.6 31.4 32.7 38.2 7.1 2.7 16.7 2.9 21.2.6 3.2-1.7 3.5-1.7 8.9.5 11.2 4.3 17.3 8.2 22.8 14.2 5.8 6.4 13.2 19.8 15.9 28.7 4.2 14.2 5.7 30.8 3.1 34.6-.8 1.2-2 4.2-2.7 6.8-2.1 8.3 2.4 17.6 9.2 19.1 1.6.4 2.9 1 2.9 1.3 0 .4.7 4.3 1.4 8.7.8 4.4 1.1 8.2.7 8.5-.8.6-13.1 31-13.1 32.5 0 .5 5.3 6.3 11.7 12.7l11.8 11.8 1.5 7.8c1.4 7.1 1.4 8.4-.3 17.7-1 5.5-1.9 13.4-1.9 17.5-.2 9.5 2.8 16.6 10.3 24.5 4.7 5 5.6 5.5 9.5 5.5h4.4l-3-5.9c-5.7-11.1-3.2-20.6 8.1-32.1 39.8-40.4 171-73.4 314.4-79 176.1-6.9 356.9 29 402.8 80 10.3 11.4 12 21 6.2 35.2-.6 1.5-.1 1.8 3.3 1.8 3.6 0 4.5-.6 8.7-5.2 2.6-2.9 5.9-7.5 7.3-10.3 2.3-4.3 2.6-6.2 2.7-14.5 0-5.5-.8-13.4-1.9-18.7-1.7-8.8-1.8-9.5-.1-17l1.7-7.8 12.1-11.5 12-11.6-6.3-15.9c-3.4-8.8-6.7-16.5-7.2-17.2-.6-.7-.4-4.2.4-9.4 1.2-7.8 1.5-8.3 5-10.7 8.3-5.4 10.6-15 5.8-24.5-2.3-4.7-2.4-5-1.2-14.6 2.4-18.9 8.2-33.8 18.3-47.1 5.3-7 10.5-10.6 22.2-15.5l6.7-2.8 4.1 1.8c19.1 8.6 53.9-16.1 53.9-38.2 0-5.1.2-5.5 10.3-18 24.4-30.5 42.6-45.6 56.3-47 7.6-.8 11.4 1.9 15.9 11.3 3.8 7.9 7.6 11.8 13.4 13.5 8.6 2.6 16.1-1.7 18.7-10.7 1.9-6.8 1.3-11.8-2.7-20.1-3.4-7.1-10.5-14-17.9-17.5-2.7-1.3-4.9-2.6-5-3 0-.8 23.1-12.1 32.3-15.8 3.1-1.3 5.7-3 5.7-3.7 0-.8-1.3-4-3-7.3-7.4-14.7-15.5-38.3-18.5-54.3-.9-4.5-2.7-23.5-4.1-42.2-5-68.8-10.7-96-27.9-134.5-1.8-4.1-4.1-9.6-5-12.2-.9-2.6-3.5-7.2-5.8-10.3-2.3-3-7.7-10.8-11.9-17.3-25.4-38.7-59-68.8-98.3-87.8-29.7-14.3-53.3-21.2-85.6-25-17.6-2-48.8-1.5-65.1 1.1l-10.7 1.7-6.3-5.6c-21.7-19.3-49.3-34.5-84-46.1-9-2.9-18.9-6.1-22.1-7-3.2-.9-5.9-2.1-6.1-2.8-3-10.5-8.2-17.7-12.9-17.7-1.3 0-8.9 3.1-16.8 6.9-24.4 11.7-54.7 23-79.4 29.6-5.5 1.4-10.9 2.9-12 3.2-1.1.3.7-2.1 4.4-5.8 13.7-13.9 22.8-31.7 27.3-53.4 1.2-6 .5-31-1-34.5-.5-1.4-2-5.7-3.2-9.5-9.3-29.7-34.5-54.3-64.2-62.9l-8.3-2.4-.3-23.1-.2-23.1h16.5c9.1 0 16.5.2 16.5.4s-1 2.5-2.1 5.1c-1.7 3.7-2 6.1-1.6 10.1 2 19.5 26.8 25.7 38.2 9.6 2.7-3.9 3-5.2 3-11.7v-7.3l6.5-.4c7.4-.6 11.3-2.3 16.1-7 7-7.1 9.2-18.8 5.2-27.9-3.9-8.7-14.7-15.5-23.5-14.8l-4.3.4V79c0-6.4-.4-8.1-2.7-11.6-8.9-13.7-29-12.6-36.3 1.9-3.2 6.4-3.2 11.9-.1 18l2.3 4.7H659V67l3.8 1.8c5.7 2.9 8.6 3.3 14.3 2.1 3.9-.9 6.4-2.2 9.7-5.3 13.8-13 4.6-35.7-14.4-35.7-2.9 0-5.8.2-6.4.6-.6.4-1-1.2-1-4.3 0-18-16.9-30.5-33.5-24.6zM497.2 382.7c3.8 8.1 4 8.8 2.3 9.8-4.3 2.4-8.5 6.9-9.5 10-.9 2.6-1.9 3.7-4.3 4.3-2.8.8-3.7.5-6.9-2.4-4.1-3.6-8.8-4.9-15-4.1-4.8.6-8.4 3-11.6 7.8-1.9 2.7-3 3.4-5.4 3.2-2.6-.1-4.7-1.6-4.8-3.3 0-.8 14.9-12.3 23.5-18 9.6-6.5 25.6-16 26.8-16 .4 0 2.7 3.9 4.9 8.7zm300.4-3.4c15.3 9.1 40.4 26.9 40.4 28.7-.1 3-7.9 4.9-8.8 2.1-.2-.6-1.6-2.6-3-4.3-6.3-7.5-18.2-7.9-25.7-.9-2.6 2.4-3.4 2.7-6.2 2-2.4-.7-3.4-1.8-4.3-4.4-1-3.1-5.2-7.6-9.5-10-1.7-1-1.5-1.7 2.3-9.8 2.2-4.8 4.5-8.7 4.9-8.7.5 0 4.9 2.4 9.9 5.3zm-268.9 87.2c12.8 40.6 30.2 108.2 43.4 169.5 7.9 36.5 10 47.6 10.4 54.3.1 3.7 1.2 9.1 2.4 12 2.1 5.3 8.5 36.7 7.6 37.5-.2.2-3.4-.7-7-2.2-11.2-4.5-20.5-3-25.1 3.9-1.3 2-1.6 4.1-1.2 10.3.5 7.3 1.6 11.1 8.9 30.7 1.8 4.8 2.3 9.1 2.9 21.2.6 13.3 1 15.7 3.1 19.9 3 5.7 8.1 8.8 14.9 8.8 6.1 0 12.4-3.7 18.5-10.8 3.9-4.7 8.5-7.6 11.6-7.6 2.2 0-3.8 19.6-9.5 31.3-10.9 22-23.8 31.7-40.8 30.5-13.8-1-28.4-11.7-39.9-29.2-3.2-4.9-5.9-9.3-5.9-9.7 0-.4 1.1-1 2.5-1.3 3.5-.9 9.3-6.2 11.8-11 3-5.7 3-15.5 0-21.2-4.2-8-11.6-12.4-20.8-12.4-9.9 0-16.8 4.4-21.1 13.5-2.8 5.8-3 11.5-.9 17.6 2.9 8.1 11.7 14.8 19.9 15.1 2.5.1 3.3.5 2.7 1.2-.5.6-2.1 4.6-3.5 8.9-6.8 20.3-18.2 35.2-32.1 41.8-14.6 7-31 1.5-47.6-15.7-6.5-6.9-14.9-17.6-14.9-19.1 0-.4 5.4-2.8 12.1-5.2 9.8-3.5 11.9-4.6 11.4-6-2.4-5.9-15.5-43.1-15.5-43.8 0-.4 9.9-4.4 22-8.7 12.2-4.3 22.3-8.3 22.6-8.7.4-.8-20.3-58.9-21.5-60-.3-.4-10.7 3.1-23.1 7.6-15.5 5.7-22.7 7.9-23.2 7.1-1.3-2-.9-5.1 1.8-11.6 10.2-25.1 28.1-50.9 54.2-78.1l12-12.5-6.1-3.9C438.3 613.2 415 590.2 402 568c-16.3-27.9-20.2-59.5-11-89.4l2.1-6.8 3.2.6c7.3 1.4 41.9 1.8 52.9.7 22.5-2.5 45.2-8.4 64.3-16.9 5-2.2 9.4-3.9 9.9-3.8.4.1 2.8 6.5 5.3 14.1zm240.8-9c14.2 5.9 30.7 10.7 47 13.6 10.8 1.9 16.7 2.3 35 2.3 12.1.1 25-.2 28.7-.7l6.7-.7 2.1 6.7c9.2 29.8 5.3 61.4-11 89.3-13 22.2-36.3 45.2-63.7 62.5l-6.1 3.9 12 12.5c26.1 27.2 44 53 54.2 78.1 2.7 6.5 3.1 9.6 1.8 11.6-.5.8-7.7-1.4-23.2-7.1-12.4-4.5-22.8-8-23.1-7.6-1.2 1.1-21.9 59.2-21.5 60 .3.4 10.4 4.4 22.6 8.7 12.1 4.3 22 8.3 22 8.7 0 .7-13.1 37.9-15.5 43.8-.5 1.3 1.6 2.4 11.2 5.9 6.5 2.4 12.1 4.6 12.5 4.9 1 .8-9 13.8-16 20.9-14.9 15.2-30.4 20.5-44.3 15.3-13.9-5.3-27.5-22.1-34.3-42.2-1.4-4.2-2.8-8.3-3.1-9-.4-1.1.3-1.5 2.6-1.7 11.1-.9 20.9-11.7 20.9-23 0-8.7-5.8-17.8-13.4-21.3-4.9-2.2-14.3-2.5-18.9-.6-4.8 2.1-9.5 6.4-12 11.1-3 5.7-3 15.5 0 21.2 2.5 4.8 8.3 10.1 11.8 11 1.4.3 2.5 1.1 2.5 1.6 0 .6-2.4 4.8-5.4 9.3-7.2 10.7-18.4 21.3-27.2 25.6-6.3 3.1-7.6 3.4-15.9 3.4-7.8 0-9.7-.4-14-2.7-5.6-2.9-13.2-10-17.4-16.2-6.3-9.1-13.3-25.9-16-38.4-.8-3.7-.7-4.2 1-4.2 3.4 0 6.6 2.2 10.3 7.1 6.9 8.9 15.7 13 23.5 10.9 10-2.7 12.3-7.4 13.1-27.5.6-11.9 1.2-16.2 2.9-21 7.8-20.9 9.3-26.2 9.5-33 .1-5.5-.3-7.6-1.9-9.9-4.2-6.3-14-7.3-25.4-2.7-3.9 1.7-7.1 2.7-7.1 2.3 0-3.5 6.6-33.4 8.2-37 1.3-3 2.3-8.3 2.8-14.7 2.4-30.7 39.1-180.8 57.6-235.4.2-.7 1-1.1 1.7-.8.6.3 6.2 2.7 12.2 5.2zm-480.6 10.7c-2.3 8.1-6 31.1-7.4 46.9-.8 9.6-1.8 33.1-2.1 52.4-.6 37.9-1.5 51.6-4.4 64-3.9 16.8-12.5 37-21.2 49.7-2.1 3.2-4.1 6.4-4.4 7.2-.4 1.1 5.1 4.3 21.3 12.5 20.8 10.5 46.9 24.9 58.5 32.4 5.4 3.4 5.5 3.6 9.6 14.8 2.3 6.3 3.8 11.6 3.4 12-.4.3-9.2 3.6-19.7 7.4-10.4 3.7-20.4 7.4-22.2 8l-3.1 1.3 9.8 26.9c12 33.1 11.7 32.1 9.8 30.6-.8-.7-3.8-1.7-6.6-2.3-9.6-2.1-20.7 3.2-25.1 11.9-7.9 15.7 3.3 34.1 20.7 34.1h5.3l-.6 5.7c-5.5 46.8-30.9 69.1-62 54.3-11.9-5.7-28.2-21-30-28.2-1-4 1.5-4.9 10.6-3.6 16.8 2.3 24.4-.5 29.6-10.9 2.2-4.6 2.8-7.2 2.8-12.3 0-5.8-.4-7.1-3.7-12.1-2.1-3-7-8.6-11-12.5-12.3-11.7-19.5-20.1-28.8-34-21.1-31.2-29.9-38.4-41.5-33.9-9.8 3.7-13.2 12.3-12 30.2.6 8.9.5 10.4-.6 9.7-6.4-3.8-21.9-15.8-21.9-16.9 0-2.5 8.1-24.6 13.1-35.9 4.7-10.5 17-33.1 24.8-45.2l3.2-5.1-5.5-11c-39.7-79.3-41.7-147.2-5.6-195.1 12.3-16.4 31.9-32.1 51.3-41.2 18.5-8.7 42.4-14.7 58.9-14.9l7.7-.1-1 3.2zm726.6-1.2c37.3 6.4 71.7 26.5 92.5 54.2 36.1 47.9 34.1 115.8-5.6 195.1l-5.5 11 3.2 5.1c7.8 12.1 20.1 34.7 24.8 45.2 5 11.3 13.1 33.4 13.1 35.9 0 1.1-15.5 13.1-21.9 16.9-1.1.7-1.2-.8-.6-9.7 1.2-17.9-2.2-26.5-12-30.2-11.6-4.5-20.4 2.7-41.6 34-9.4 14-15.4 21-28.2 33.5-9.2 8.8-14.4 16.2-15.3 21.8-1.5 9.3 4.4 21.9 11.9 25.2 4.5 2.1 12 2.5 21.7 1.1 13.9-2 13.3 5.2-1.6 18.8-23 21.1-45.4 23.4-62.1 6.4-9-9.2-16.7-28.5-18.7-47.1l-.7-6.2h5.4c17.4 0 28.5-18.4 20.6-34.1-4.4-8.7-15.5-14-25.1-11.9-2.8.6-5.8 1.6-6.6 2.3-1.9 1.5-2.2 2.5 9.8-30.6l9.8-26.9-3.1-1.3c-1.8-.6-11.7-4.3-22.2-8-10.4-3.8-19.3-7.1-19.7-7.4-.4-.4 1.1-5.7 3.4-12 4.1-11.2 4.2-11.4 9.6-14.8 11.6-7.5 37.7-21.9 58.5-32.4 16.2-8.2 21.7-11.4 21.3-12.5-.3-.8-2.3-4-4.4-7.2-8.7-12.7-17.3-32.9-21.2-49.7-2.9-12.4-3.8-26.1-4.4-64-.3-19.3-1.3-42.8-2.1-52.4-1.4-15.8-5.1-38.8-7.4-46.9l-1-3.2h6.9c3.7 0 12.1.9 18.5 2zM373.4 843.5c4.2 11.5 7.8 21.6 8.1 22.2.3.9 3.6.1 11.7-2.8 16.9-6.2 15.2-6.4 14.5 1.7-2.6 27.5-16.8 45.7-36.6 47.2-16.7 1.2-34-9.2-49.4-29.5l-4.7-6.2 4.4-4.1c8.6-7.9 10.1-19.9 3.8-30.1-1.8-2.8-3.1-5.2-3-5.4 1.8-1.2 42.5-15.1 43-14.6.4.3 4.1 10 8.2 21.6zm566.1-13.6c9.4 3.4 17.6 6.3 18.3 6.6.9.3.6 1.1-.9 2.6-5.7 5.7-7.6 17.6-4 25.4 1 2.2 3.7 5.7 6 7.8l4.3 3.8-5.8 7.5c-10.7 14.1-21.9 22.6-34.7 26.5-25.9 8-47.2-11.3-50.4-45.5-.7-8.1-2.4-7.9 14.5-1.7 8.1 2.9 11.4 3.7 11.7 2.8 8.6-23.7 15.7-43.3 16.1-43.8.2-.5 2.1-.2 4.2.6 2 .7 11.4 4.1 20.7 7.4z"/>
</svg>